<svg width="94" height="67" viewBox="0 0 94 67" fill="none" xmlns="http://www.w3.org/2000/svg">
<g filter="url(#filter0_d_315_408)">
<path d="M4.59968 44.2255C4.99968 49.8255 8.43301 55.2255 10.0997 57.2255C10.5998 51.7255 23.0996 48.2255 25.5996 48.2255C27.5996 48.2255 41.4329 44.2255 48.0996 42.2255C57.4329 39.2255 78.5996 32.1255 88.5996 27.7255C92.0996 10.2255 82.5996 -1.27451 82.0996 0.725491C81.6996 2.32549 69.2663 7.0588 63.0996 9.22547C50.9329 13.7255 24.5996 23.0255 16.5996 24.2255C8.59961 25.4255 5.93299 28.3921 5.59968 29.7255C5.09968 32.2255 4.19968 38.6255 4.59968 44.2255Z" fill="#3F509E" stroke="#3F509E"/>
<path d="M38.809 26.8465C38.405 26.7823 37.9876 26.752 37.5566 26.7555C37.1228 26.7501 36.7285 26.8055 36.3736 26.9216C35.8946 27.0784 35.548 27.3096 35.3338 27.6154C35.1285 27.9183 35.0868 28.256 35.2087 28.6286C35.2958 28.8947 35.4658 29.0993 35.7189 29.2423C35.9779 29.3736 36.2829 29.4653 36.6338 29.5174C36.9907 29.5578 37.3595 29.5893 37.7401 29.6121C38.0677 29.6227 38.398 29.657 38.7312 29.715C39.0704 29.7611 39.3901 29.8529 39.6904 29.9903C39.9907 30.1277 40.2596 30.3343 40.4972 30.6101C40.7318 30.8771 40.9246 31.2412 41.0756 31.7024C41.241 32.2081 41.2648 32.7159 41.1469 33.2258C41.0349 33.724 40.7801 34.1756 40.3823 34.5808C39.9846 34.9859 39.4442 35.3002 38.7612 35.5237C38.3531 35.6572 37.9394 35.7435 37.5201 35.7825C37.1096 35.8186 36.7068 35.8178 36.3115 35.7802C35.9133 35.7338 35.5359 35.6608 35.1793 35.5615L35.475 34.1242C35.7401 34.2143 36.032 34.2808 36.3505 34.3239C36.669 34.367 36.9877 34.3805 37.3066 34.3646C37.6254 34.3486 37.9135 34.2986 38.1707 34.2144C38.4457 34.1244 38.7017 33.9915 38.9388 33.8157C39.1819 33.6282 39.3587 33.4034 39.4694 33.1413C39.5889 32.8763 39.5935 32.5753 39.4832 32.2382C39.3932 31.9632 39.2365 31.7543 39.013 31.6114C38.7983 31.4656 38.5391 31.3638 38.2355 31.306C37.9289 31.2394 37.6059 31.1978 37.2666 31.1811C36.9272 31.1645 36.5791 31.136 36.2222 31.0957C35.8653 31.0554 35.516 30.9782 35.1742 30.8641C34.8385 30.7383 34.537 30.5522 34.2697 30.3057C34.0025 30.0593 33.7963 29.7143 33.6512 29.2708C33.477 28.7385 33.4503 28.2366 33.571 27.7651C33.6916 27.2935 33.9315 26.8713 34.2907 26.4984C34.6588 26.1226 35.1282 25.8316 35.699 25.6251C36.382 25.4017 36.9906 25.2958 37.5248 25.3076C38.0649 25.3076 38.559 25.362 39.007 25.4707L38.809 26.8465ZM46.0928 33.1688C45.5695 33.3401 45.0542 33.386 44.547 33.3064C44.0486 33.224 43.6041 33.0061 43.2135 32.6527C42.82 32.2904 42.5173 31.7855 42.3054 31.138C42.0965 30.4993 42.0466 29.9117 42.1558 29.3751C42.271 28.8268 42.5008 28.3587 42.8453 27.971C43.1987 27.5804 43.6282 27.3024 44.1338 27.137C44.6749 26.9599 45.1459 26.9286 45.5467 27.0429C45.9534 27.1455 46.2963 27.3083 46.5755 27.5312L46.5653 27.7702L46.3721 26.6845L47.7426 26.236L49.5843 31.8644L48.094 32.352L47.6456 30.9815L47.9095 31.2929C47.9003 31.3548 47.8584 31.4667 47.7837 31.6286C47.715 31.7788 47.6107 31.9553 47.4709 32.1582C47.331 32.3611 47.1484 32.5534 46.9231 32.7351C46.7067 32.914 46.4299 33.0585 46.0928 33.1688ZM46.1048 31.8097C46.3797 31.7198 46.6122 31.5897 46.802 31.4196C46.9918 31.2494 47.1331 31.051 47.2259 30.8242C47.3186 30.5975 47.3598 30.3483 47.3495 30.0767L46.949 28.8526C46.8025 28.6452 46.6219 28.4833 46.4071 28.367C46.1894 28.2418 45.9492 28.1682 45.6867 28.1461C45.433 28.1211 45.1686 28.1536 44.8937 28.2435C44.5832 28.3451 44.324 28.5134 44.1161 28.7484C43.9171 28.9805 43.7813 29.2557 43.7087 29.574C43.6449 29.8895 43.6697 30.2202 43.7829 30.5662C43.8932 30.9032 44.0731 31.1831 44.3228 31.4059C44.5724 31.6286 44.8565 31.7763 45.1748 31.8489C45.4932 31.9215 45.8032 31.9084 46.1048 31.8097ZM48.2331 20.8167L49.7234 20.3291L53.1194 30.7076L51.6291 31.1953L48.2331 20.8167ZM57.8991 29.3057C57.2338 29.5233 56.624 29.5805 56.0697 29.4771C55.5154 29.3737 55.04 29.1364 54.6436 28.7653C54.2472 28.3942 53.9532 27.9159 53.7617 27.3304C53.5788 26.7716 53.5553 26.2195 53.6911 25.6742C53.824 25.1201 54.0865 24.6316 54.4784 24.2087C54.8763 23.7741 55.368 23.461 55.9534 23.2694C56.7252 23.0169 57.4334 23.0356 58.0782 23.3254C58.729 23.6035 59.2721 24.123 59.7077 24.8839L55.6711 27.8988L55.0509 27.1737L58.1899 24.7472L57.9272 25.0247C57.7514 24.7876 57.5207 24.6077 57.2351 24.4851C56.9465 24.3537 56.6071 24.3518 56.2168 24.4795C55.9064 24.5811 55.656 24.7465 55.4659 24.9757C55.2757 25.2048 55.1532 25.4757 55.0984 25.7882C55.0495 26.089 55.0831 26.4168 55.1992 26.7716C55.3211 27.1442 55.5024 27.4433 55.7432 27.669C55.9811 27.8857 56.2533 28.0274 56.5599 28.0941C56.8636 28.1518 57.1795 28.127 57.5078 28.0196C57.7384 27.9441 57.9427 27.8331 58.1206 27.6865C58.3073 27.537 58.4765 27.3638 58.6281 27.1669L59.6681 28.0492C59.4363 28.3313 59.1619 28.588 58.8448 28.8194C58.5337 29.0391 58.2185 29.2012 57.8991 29.3057Z" fill="#EEEFFB"/>
</g>
<defs>
<filter id="filter0_d_315_408" x="0" y="0" width="93.8721" height="66.4729" filterUnits="userSpaceOnUse" color-interpolation-filters="sRGB">
<feFlood flood-opacity="0" result="BackgroundImageFix"/>
<feColorMatrix in="SourceAlpha" type="matrix" values="0 0 0 0 0 0 0 0 0 0 0 0 0 0 0 0 0 0 127 0" result="hardAlpha"/>
<feOffset dy="4"/>
<feGaussianBlur stdDeviation="2"/>
<feComposite in2="hardAlpha" operator="out"/>
<feColorMatrix type="matrix" values="0 0 0 0 0 0 0 0 0 0 0 0 0 0 0 0 0 0 0.25 0"/>
<feBlend mode="normal" in2="BackgroundImageFix" result="effect1_dropShadow_315_408"/>
<feBlend mode="normal" in="SourceGraphic" in2="effect1_dropShadow_315_408" result="shape"/>
</filter>
</defs>
</svg>
