<svg width="13" height="13" viewBox="0 0 13 13" fill="none" xmlns="http://www.w3.org/2000/svg">
<path d="M8.13806 5.01306H6.26306V3.13806C6.26306 2.9723 6.19721 2.81333 6.08 2.69612C5.96279 2.57891 5.80382 2.51306 5.63806 2.51306C5.4723 2.51306 5.31333 2.57891 5.19612 2.69612C5.07891 2.81333 5.01306 2.9723 5.01306 3.13806V5.01306H3.13806C2.9723 5.01306 2.81333 5.07891 2.69612 5.19612C2.57891 5.31333 2.51306 5.4723 2.51306 5.63806C2.51306 5.80382 2.57891 5.96279 2.69612 6.08C2.81333 6.19721 2.9723 6.26306 3.13806 6.26306H5.01306V8.13806C5.01306 8.30382 5.07891 8.46279 5.19612 8.58C5.31333 8.69722 5.4723 8.76306 5.63806 8.76306C5.80382 8.76306 5.96279 8.69722 6.08 8.58C6.19721 8.46279 6.26306 8.30382 6.26306 8.13806V6.26306H8.13806C8.30382 6.26306 8.46279 6.19721 8.58 6.08C8.69722 5.96279 8.76306 5.80382 8.76306 5.63806C8.76306 5.4723 8.69722 5.31333 8.58 5.19612C8.46279 5.07891 8.30382 5.01306 8.13806 5.01306ZM12.3318 11.4443L10.0131 9.14431C10.9131 8.02207 11.349 6.59762 11.2311 5.16388C11.1131 3.73013 10.4504 2.39605 9.37901 1.43597C8.30767 0.475879 6.90919 -0.0372434 5.47114 0.00210685C4.03309 0.0414571 2.66476 0.630289 1.64753 1.64753C0.630289 2.66476 0.0414571 4.03309 0.00210685 5.47114C-0.0372434 6.90919 0.475879 8.30767 1.43597 9.37901C2.39605 10.4504 3.73013 11.1131 5.16388 11.2311C6.59762 11.349 8.02207 10.9131 9.14431 10.0131L11.4443 12.3131C11.5024 12.3716 11.5715 12.4181 11.6477 12.4499C11.7239 12.4816 11.8056 12.4979 11.8881 12.4979C11.9706 12.4979 12.0523 12.4816 12.1284 12.4499C12.2046 12.4181 12.2737 12.3716 12.3318 12.3131C12.4445 12.1965 12.5074 12.0408 12.5074 11.8787C12.5074 11.7166 12.4445 11.5609 12.3318 11.4443ZM5.63806 10.0131C4.77277 10.0131 3.92691 9.75647 3.20744 9.27574C2.48798 8.79501 1.92722 8.11173 1.59609 7.3123C1.26496 6.51288 1.17832 5.63321 1.34713 4.78454C1.51594 3.93588 1.93262 3.15633 2.54447 2.54447C3.15633 1.93262 3.93588 1.51594 4.78454 1.34713C5.63321 1.17832 6.51288 1.26496 7.3123 1.59609C8.11173 1.92722 8.79501 2.48798 9.27574 3.20744C9.75647 3.92691 10.0131 4.77277 10.0131 5.63806C10.0131 6.79839 9.55213 7.91118 8.73166 8.73166C7.91118 9.55213 6.79839 10.0131 5.63806 10.0131Z" fill="url(#paint0_linear_224_21)"/>
<defs>
<linearGradient id="paint0_linear_224_21" x1="0" y1="0" x2="12.4979" y2="12.5074" gradientUnits="userSpaceOnUse">
<stop stop-color="#1389FF"/>
<stop offset="1" stop-color="#1DB4E7"/>
</linearGradient>
</defs>
</svg>
