<svg width="17" height="17" viewBox="0 0 17 17" fill="none" xmlns="http://www.w3.org/2000/svg">
<path d="M14.28 3.26545C13.5279 2.5132 12.5309 2.05585 11.4702 1.97655C10.4094 1.89726 9.35549 2.20129 8.49997 2.83336C7.59873 2.16302 6.47697 1.85906 5.36058 1.98268C4.2442 2.10631 3.21612 2.64833 2.48337 3.49961C1.75062 4.35089 1.36764 5.44819 1.41154 6.57054C1.45544 7.69289 1.92297 8.75692 2.71997 9.54836L7.99706 14.8254C8.0629 14.8918 8.14125 14.9445 8.22756 14.9805C8.31388 15.0165 8.40646 15.035 8.49997 15.035C8.59348 15.035 8.68606 15.0165 8.77238 14.9805C8.8587 14.9445 8.93704 14.8918 9.00289 14.8254L14.28 9.54836C14.6927 9.13592 15.0201 8.64619 15.2435 8.10716C15.4668 7.56814 15.5818 6.99038 15.5818 6.40691C15.5818 5.82343 15.4668 5.24567 15.2435 4.70665C15.0201 4.16762 14.6927 3.67789 14.28 3.26545ZM13.2812 8.54961L8.49997 13.3238L3.71872 8.54961C3.29739 8.12653 3.01037 7.58844 2.89368 7.00285C2.77698 6.41727 2.83581 5.81026 3.06277 5.25798C3.28974 4.7057 3.67473 4.23274 4.16947 3.89843C4.6642 3.56412 5.24664 3.38334 5.84372 3.37878C6.64139 3.38073 7.40567 3.69919 7.96872 4.2642C8.03457 4.33059 8.11291 4.38328 8.19923 4.41925C8.28555 4.45521 8.37813 4.47372 8.47164 4.47372C8.56515 4.47372 8.65773 4.45521 8.74405 4.41925C8.83036 4.38328 8.90871 4.33059 8.97456 4.2642C9.5542 3.76191 10.303 3.49859 11.0695 3.52755C11.8359 3.5565 12.5628 3.87557 13.1029 4.42016C13.6429 4.96476 13.956 5.69421 13.9786 6.46087C14.0012 7.22754 13.7316 7.97416 13.2246 8.54961H13.2812Z" fill="url(#paint0_linear_224_16)"/>
<defs>
<linearGradient id="paint0_linear_224_16" x1="1.40814" y1="1.95569" x2="14.4453" y2="16.0837" gradientUnits="userSpaceOnUse">
<stop stop-color="#1389FF"/>
<stop offset="1" stop-color="#1DB4E7"/>
</linearGradient>
</defs>
</svg>
