<svg width="11" height="11" viewBox="0 0 11 11" fill="none" xmlns="http://www.w3.org/2000/svg">
<g clip-path="url(#clip0_315_235)">
<path d="M5.50002 8.7085C5.59067 8.7085 5.67928 8.68162 5.75466 8.63125C5.83003 8.58089 5.88877 8.50931 5.92346 8.42556C5.95816 8.34181 5.96723 8.24965 5.94955 8.16075C5.93186 8.07184 5.88821 7.99017 5.82411 7.92607C5.76001 7.86197 5.67834 7.81832 5.58944 7.80064C5.50053 7.78295 5.40837 7.79203 5.32462 7.82672C5.24087 7.86141 5.16929 7.92015 5.11893 7.99553C5.06857 8.0709 5.04169 8.15951 5.04169 8.25016C5.04169 8.37172 5.08998 8.4883 5.17593 8.57425C5.26188 8.66021 5.37846 8.7085 5.50002 8.7085ZM7.79169 8.7085C7.88234 8.7085 7.97095 8.68162 8.04632 8.63125C8.1217 8.58089 8.18044 8.50931 8.21513 8.42556C8.24982 8.34181 8.2589 8.24965 8.24121 8.16075C8.22353 8.07184 8.17988 7.99017 8.11578 7.92607C8.05168 7.86197 7.97001 7.81832 7.8811 7.80064C7.7922 7.78295 7.70004 7.79203 7.61629 7.82672C7.53254 7.86141 7.46096 7.92015 7.4106 7.99553C7.36023 8.0709 7.33335 8.15951 7.33335 8.25016C7.33335 8.37172 7.38164 8.4883 7.4676 8.57425C7.55355 8.66021 7.67013 8.7085 7.79169 8.7085ZM7.79169 6.87516C7.88234 6.87516 7.97095 6.84828 8.04632 6.79792C8.1217 6.74756 8.18044 6.67598 8.21513 6.59223C8.24982 6.50848 8.2589 6.41632 8.24121 6.32741C8.22353 6.23851 8.17988 6.15684 8.11578 6.09274C8.05168 6.02864 7.97001 5.98499 7.8811 5.9673C7.7922 5.94962 7.70004 5.95869 7.61629 5.99339C7.53254 6.02808 7.46096 6.08682 7.4106 6.16219C7.36023 6.23757 7.33335 6.32618 7.33335 6.41683C7.33335 6.53839 7.38164 6.65497 7.4676 6.74092C7.55355 6.82687 7.67013 6.87516 7.79169 6.87516ZM5.50002 6.87516C5.59067 6.87516 5.67928 6.84828 5.75466 6.79792C5.83003 6.74756 5.88877 6.67598 5.92346 6.59223C5.95816 6.50848 5.96723 6.41632 5.94955 6.32741C5.93186 6.23851 5.88821 6.15684 5.82411 6.09274C5.76001 6.02864 5.67834 5.98499 5.58944 5.9673C5.50053 5.94962 5.40837 5.95869 5.32462 5.99339C5.24087 6.02808 5.16929 6.08682 5.11893 6.16219C5.06857 6.23757 5.04169 6.32618 5.04169 6.41683C5.04169 6.53839 5.08998 6.65497 5.17593 6.74092C5.26188 6.82687 5.37846 6.87516 5.50002 6.87516ZM8.70835 1.37516H8.25002V0.916829C8.25002 0.795272 8.20173 0.678693 8.11578 0.592739C8.02982 0.506785 7.91324 0.458496 7.79169 0.458496C7.67013 0.458496 7.55355 0.506785 7.4676 0.592739C7.38164 0.678693 7.33335 0.795272 7.33335 0.916829V1.37516H3.66669V0.916829C3.66669 0.795272 3.6184 0.678693 3.53244 0.592739C3.44649 0.506785 3.32991 0.458496 3.20835 0.458496C3.0868 0.458496 2.97022 0.506785 2.88426 0.592739C2.79831 0.678693 2.75002 0.795272 2.75002 0.916829V1.37516H2.29169C1.92701 1.37516 1.57728 1.52003 1.31942 1.77789C1.06155 2.03575 0.916687 2.38549 0.916687 2.75016V9.16683C0.916687 9.5315 1.06155 9.88124 1.31942 10.1391C1.57728 10.397 1.92701 10.5418 2.29169 10.5418H8.70835C9.07303 10.5418 9.42276 10.397 9.68062 10.1391C9.93849 9.88124 10.0834 9.5315 10.0834 9.16683V2.75016C10.0834 2.38549 9.93849 2.03575 9.68062 1.77789C9.42276 1.52003 9.07303 1.37516 8.70835 1.37516ZM9.16669 9.16683C9.16669 9.28839 9.1184 9.40497 9.03244 9.49092C8.94649 9.57688 8.82991 9.62516 8.70835 9.62516H2.29169C2.17013 9.62516 2.05355 9.57688 1.9676 9.49092C1.88164 9.40497 1.83335 9.28839 1.83335 9.16683V5.04183H9.16669V9.16683ZM9.16669 4.12516H1.83335V2.75016C1.83335 2.62861 1.88164 2.51203 1.9676 2.42607C2.05355 2.34012 2.17013 2.29183 2.29169 2.29183H2.75002V2.75016C2.75002 2.87172 2.79831 2.9883 2.88426 3.07425C2.97022 3.16021 3.0868 3.2085 3.20835 3.2085C3.32991 3.2085 3.44649 3.16021 3.53244 3.07425C3.6184 2.9883 3.66669 2.87172 3.66669 2.75016V2.29183H7.33335V2.75016C7.33335 2.87172 7.38164 2.9883 7.4676 3.07425C7.55355 3.16021 7.67013 3.2085 7.79169 3.2085C7.91324 3.2085 8.02982 3.16021 8.11578 3.07425C8.20173 2.9883 8.25002 2.87172 8.25002 2.75016V2.29183H8.70835C8.82991 2.29183 8.94649 2.34012 9.03244 2.42607C9.1184 2.51203 9.16669 2.62861 9.16669 2.75016V4.12516ZM3.20835 6.87516C3.299 6.87516 3.38762 6.84828 3.46299 6.79792C3.53836 6.74756 3.59711 6.67598 3.6318 6.59223C3.66649 6.50848 3.67557 6.41632 3.65788 6.32741C3.6402 6.23851 3.59654 6.15684 3.53244 6.09274C3.46834 6.02864 3.38668 5.98499 3.29777 5.9673C3.20886 5.94962 3.11671 5.95869 3.03296 5.99339C2.94921 6.02808 2.87763 6.08682 2.82726 6.16219C2.7769 6.23757 2.75002 6.32618 2.75002 6.41683C2.75002 6.53839 2.79831 6.65497 2.88426 6.74092C2.97022 6.82687 3.0868 6.87516 3.20835 6.87516ZM3.20835 8.7085C3.299 8.7085 3.38762 8.68162 3.46299 8.63125C3.53836 8.58089 3.59711 8.50931 3.6318 8.42556C3.66649 8.34181 3.67557 8.24965 3.65788 8.16075C3.6402 8.07184 3.59654 7.99017 3.53244 7.92607C3.46834 7.86197 3.38668 7.81832 3.29777 7.80064C3.20886 7.78295 3.11671 7.79203 3.03296 7.82672C2.94921 7.86141 2.87763 7.92015 2.82726 7.99553C2.7769 8.0709 2.75002 8.15951 2.75002 8.25016C2.75002 8.37172 2.79831 8.4883 2.88426 8.57425C2.97022 8.66021 3.0868 8.7085 3.20835 8.7085Z" fill="#FFA454"/>
</g>
<defs>
<clipPath id="clip0_315_235">
<rect width="11" height="11" fill="white"/>
</clipPath>
</defs>
</svg>
