<svg width="24" height="23" viewBox="0 0 24 23" fill="none" xmlns="http://www.w3.org/2000/svg">
<g filter="url(#filter0_d_20_115)">
<path d="M21.7099 18.3109L17.9999 14.6309C19.44 12.8353 20.1374 10.5562 19.9487 8.2622C19.76 5.9682 18.6996 3.83368 16.9854 2.29754C15.2713 0.761407 13.0337 -0.0595894 10.7328 0.00337096C8.43194 0.0663314 6.24263 1.00846 4.61505 2.63604C2.98747 4.26362 2.04534 6.45294 1.98237 8.75382C1.91941 11.0547 2.74041 13.2923 4.27655 15.0064C5.81269 16.7206 7.94721 17.781 10.2412 17.9697C12.5352 18.1584 14.8143 17.461 16.6099 16.0209L20.2899 19.7009C20.3829 19.7946 20.4935 19.869 20.6153 19.9198C20.7372 19.9706 20.8679 19.9967 20.9999 19.9967C21.1319 19.9967 21.2626 19.9706 21.3845 19.9198C21.5063 19.869 21.6169 19.7946 21.7099 19.7009C21.8901 19.5144 21.9909 19.2652 21.9909 19.0059C21.9909 18.7466 21.8901 18.4974 21.7099 18.3109ZM10.9999 16.0209C9.61544 16.0209 8.26206 15.6104 7.11091 14.8412C5.95977 14.072 5.06256 12.9788 4.53275 11.6997C4.00293 10.4206 3.86431 9.01314 4.13441 7.65527C4.4045 6.2974 5.07119 5.05012 6.05016 4.07115C7.02912 3.09219 8.27641 2.4255 9.63427 2.1554C10.9921 1.88531 12.3996 2.02393 13.6787 2.55374C14.9578 3.08356 16.051 3.98076 16.8202 5.13191C17.5894 6.28305 17.9999 7.63643 17.9999 9.0209C17.9999 10.8774 17.2624 12.6579 15.9497 13.9706C14.6369 15.2834 12.8564 16.0209 10.9999 16.0209Z" fill="url(#paint0_linear_20_115)"/>
<path d="M10.7466 0.50293C12.9196 0.44349 15.033 1.21914 16.6519 2.66992C18.2706 4.12062 19.2724 6.13638 19.4507 8.30273C19.6289 10.4693 18.97 12.6225 17.6099 14.3184L17.3286 14.6689L17.6479 14.9863L21.3491 18.6582H21.3501C21.4402 18.7514 21.4907 18.8762 21.4907 19.0059C21.4907 19.1345 21.4408 19.2576 21.3521 19.3506C21.3061 19.3964 21.2518 19.433 21.1919 19.458C21.131 19.4833 21.0655 19.4971 20.9995 19.4971C20.9336 19.497 20.8679 19.4833 20.8071 19.458C20.7464 19.4326 20.6914 19.3954 20.645 19.3486L20.6431 19.3477L16.9634 15.667L16.647 15.3506L16.2974 15.6309C14.6015 16.991 12.4483 17.6499 10.2817 17.4717C8.11538 17.2934 6.09962 16.2916 4.64893 14.6729C3.19815 13.054 2.42249 10.9406 2.48193 8.76758C2.5414 6.59452 3.4311 4.52642 4.96826 2.98926C6.50542 1.4521 8.57352 0.562392 10.7466 0.50293ZM13.8696 2.0918C12.4993 1.52426 10.9914 1.37567 9.53662 1.66504C8.08181 1.95444 6.74565 2.66891 5.69678 3.71777C4.64791 4.76664 3.93345 6.1028 3.64404 7.55762C3.35468 9.01235 3.50326 10.5203 4.0708 11.8906C4.63846 13.2611 5.60013 14.4327 6.8335 15.2568C8.06671 16.0808 9.51637 16.5204 10.9995 16.5205C12.9886 16.5205 14.8967 15.7307 16.3032 14.3242C17.7097 12.9177 18.4995 11.0096 18.4995 9.02051C18.4994 7.53737 18.0598 6.08771 17.2358 4.85449C16.4117 3.62112 15.2401 2.65945 13.8696 2.0918Z" stroke="black"/>
</g>
<defs>
<filter id="filter0_d_20_115" x="-2.021" y="0" width="28.0118" height="27.9967" filterUnits="userSpaceOnUse" color-interpolation-filters="sRGB">
<feFlood flood-opacity="0" result="BackgroundImageFix"/>
<feColorMatrix in="SourceAlpha" type="matrix" values="0 0 0 0 0 0 0 0 0 0 0 0 0 0 0 0 0 0 127 0" result="hardAlpha"/>
<feOffset dy="4"/>
<feGaussianBlur stdDeviation="2"/>
<feComposite in2="hardAlpha" operator="out"/>
<feColorMatrix type="matrix" values="0 0 0 0 0 0 0 0 0 0 0 0 0 0 0 0 0 0 0.25 0"/>
<feBlend mode="normal" in2="BackgroundImageFix" result="effect1_dropShadow_20_115"/>
<feBlend mode="normal" in="SourceGraphic" in2="effect1_dropShadow_20_115" result="shape"/>
</filter>
<linearGradient id="paint0_linear_20_115" x1="1.979" y1="0" x2="25.4288" y2="14.397" gradientUnits="userSpaceOnUse">
<stop stop-color="#F3F9FF"/>
<stop offset="1" stop-color="#F1F0FF"/>
</linearGradient>
</defs>
</svg>
